{"title":"Babylon.AD.2008.BDRip.XviD-SDTeam","uid":5766486,"size":424745361,"categoryP":"video","categoryS":"movies","magnet":"?xt=urn:btih:c1d386d5f2db6138ef85aac9fed612ac1bf805f3&amp;dn=Babylon.AD.2008.BDRip.XviD-SDTeam&amp;tr=udp%3A%2F%2Ftracker.openbittorrent.com%3A80&amp;tr=udp%3A%2F%2Fopen.demonii.com%3A1337&amp;tr=udp%3A%2F%2Ftracker.coppersurfer.tk%3A6969&amp;tr=udp%3A%2F%2Fexodus.desync.com%3A6969","seeders":0,"leechers":0,"uploader":"bg2k9","files":32,"time":1281927647,"description":"GREETZ: UnDeaD - BadGirl2k9 - virusofsaten - foxyb - WICCYWOLF - lizzymwah1\n\nVISIT http://www.seedboxwprld.biz/ for all ur seedbox needs!\n\nVISITfor all ur torrenting needs!\n\nRELEASE NAME: Babylon.AD.2008.BDRip.XviD-SDTeam\nRELEASED BY: UnDeaD &amp; BadGirl2k9\nSIZE: 405 MB\n\nLANGUAGE: English\nIMDb: http://www.imdb.com/title/tt0364970/\n\nPLOT: In a near future, the mercenary Toorop is \nhired by the powerful criminal Gorsky to bring a \nwoman named Aurora from a Noelite Convent in Central \nAsia to New York. In return, he would receive a high \namount of money and a clear passport. Toorop joins Aurora \nand her guardian Sister Rebeka and they cross the dangerous \nRussia chased mercenaries that also want Aurora. Along their \njourney, Toorop discovers that Aurora has special abilities \nand once in New York, they see on the news that the Noelite \nConvent has been just bombed. When Aurora discloses that she \nis virgin and pregnant of twins, Toorop realizes that there is \nsomething dirty behind and Sister Rebeka and he will not be \nleft alive by Gorsky.\n\nSCREENS: &lt;a href=&quot;\nhttp://i658.photobucket.com/albums/uu309/BadGirl2k9/screens/vlcsnap-2010-08-16-01h49m47s106.png&quot; rel=&quot;nofollow&quot; target=&quot;_NEW&quot;&gt;\nhttp://i658.photobucket.com/albums/uu309/BadGirl2k9/screens/vlcsnap-2010-08-16-01h49m47s106.png&lt;/a&gt; &lt;a href=&quot;\nhttp://i658.photobucket.com/albums/uu309/BadGirl2k9/screens/vlcsnap-2010-08-16-01h49m03s188.png&quot; rel=&quot;nofollow&quot; target=&quot;_NEW&quot;&gt;\nhttp://i658.photobucket.com/albums/uu309/BadGirl2k9/screens/vlcsnap-2010-08-16-01h49m03s188.png&lt;/a&gt; &lt;a href=&quot;\nhttp://i658.photobucket.com/albums/uu309/BadGirl2k9/screens/vlcsnap-2010-08-16-01h48m49s33.png&quot; rel=&quot;nofollow&quot; target=&quot;_NEW&quot;&gt;\nhttp://i658.photobucket.com/albums/uu309/BadGirl2k9/screens/vlcsnap-2010-08-16-01h48m49s33.png&lt;/a&gt;\n\nGeneral\nComplete name                    : C:\\Users\\root\\Desktop\\Babylon.AD.2008.720p.BDRip.XviD.AC3-ViSiON\\Babylon.AD.2008.BDRip.XviD-SDTeam.avi\nFormat                           : AVI\nFormat/Info                      : Audio Video Interleave\nFile size                        : 405 MiB\nDuration                         : 1h 38mn\nOverall bit rate                 : 573 Kbps\nWriting application              : MEncoder SVN-r22963\nWriting library                  : MPlayer\n\nVideo\nID                               : 0\nFormat                           : MPEG-4 Visual\nFormat profile                   : Simple@L3\nFormat settings, BVOP            : No\nFormat settings, QPel            : No\nFormat settings, GMC             : No warppoints\nFormat settings, Matrix          : Default (H.263)\nCodec ID                         : XVID\nCodec ID/Hint                    : XviD\nDuration                         : 1h 38mn\nBit rate                         : 497 Kbps\nWidth                            : 512 pixels\nHeight                           : 224 pixels\nDisplay aspect ratio             : 2.25:1\nFrame rate                       : 20.000 fps\nResolution                       : 8 bits\nColorimetry                      : 4:2:0\nScan type                        : Progressive\nBits/(Pixel*Frame)               : 0.217\nStream size                      : 352 MiB (87%)\nWriting library                  : XviD 1.1.2 (UTC 2006-11-01)\n\nAudio\nID                               : 1\nFormat                           : MPEG Audio\nFormat version                   : Version 1\nFormat profile                   : Layer 3\nCodec ID                         : 55\nCodec ID/Hint                    : MP3\nDuration                         : 1h 38mn\nBit rate mode                    : Constant\nBit rate                         : 64.0 Kbps\nChannel(s)                       : 2 channels\nSampling rate                    : 44.1 KHz\nStream size                      : 45.2 MiB (11%)\nAlignment                        : Aligned on interleaves\nInterleave, duration             : 26 ms (0.52 video frame)\nInterleave, preload duration     : 522 ms","torrent":{"xt":"urn:btih:c1d386d5f2db6138ef85aac9fed612ac1bf805f3","amp;dn":"Babylon.AD.2008.BDRip.XviD-SDTeam","amp;tr":["udp%3A%2F%2Ftracker.openbittorrent.com%3A80","udp%3A%2F%2Fopen.demonii.com%3A1337","udp%3A%2F%2Ftracker.coppersurfer.tk%3A6969","udp%3A%2F%2Fexodus.desync.com%3A6969"],"infoHash":"c1d386d5f2db6138ef85aac9fed612ac1bf805f3","infoHashBuffer":{"type":"Buffer","data":[193,211,134,213,242,219,97,56,239,133,170,201,254,214,18,172,27,248,5,243]},"announce":[],"urlList":[]}}